HIERARCHY
ROOT Hips
{
 OFFSET 0.000000 0.000000 0.000000
 CHANNELS 6 Xposition Yposition Zposition Yrotation Xrotation Zrotation
 JOINT Chest
 {
  OFFSET 0.000000 9.585900 0.002600
  CHANNELS 3 Yrotation Xrotation Zrotation
  JOINT Chest2
  {
   OFFSET 0.000000 9.601200 -0.005300
   CHANNELS 3 Yrotation Xrotation Zrotation
   JOINT Chest3
   {
    OFFSET 0.000000 9.561800 0.000000
    CHANNELS 3 Yrotation Xrotation Zrotation
    JOINT Chest4
    {
     OFFSET 0.000000 9.552100 0.000000
     CHANNELS 3 Yrotation Xrotation Zrotation
     JOINT Neck
     {
      OFFSET 0.000000 14.453000 0.000000
      CHANNELS 3 Yrotation Xrotation Zrotation
      JOINT Head
      {
       OFFSET 0.000000 8.936500 -0.011300
       CHANNELS 3 Yrotation Xrotation Zrotation
       End Site
       {
        OFFSET 0.000000 17.073600 -0.006000
       }
      }
     }
     JOINT RightCollar
     {
      OFFSET -2.921100 9.558500 0.000000
      CHANNELS 3 Yrotation Xrotation Zrotation
      JOINT RightShoulder
      {
       OFFSET -13.519700 0.000000 0.000000
       CHANNELS 3 Yrotation Xrotation Zrotation
       JOINT RightElbow
       {
        OFFSET 0.000000 -29.696600 0.000000
        CHANNELS 3 Yrotation Xrotation Zrotation
        JOINT RightWrist
        {
         OFFSET 0.000000 -24.004700 0.000000
         CHANNELS 3 Yrotation Xrotation Zrotation
         End Site
         {
          OFFSET 0.000000 -17.728500 0.000000
         }
        }
       }
      }
     }
     JOINT LeftCollar
     {
      OFFSET 2.921100 9.558500 0.000000
      CHANNELS 3 Yrotation Xrotation Zrotation
      JOINT LeftShoulder
      {
       OFFSET 13.519700 0.000000 0.000000
       CHANNELS 3 Yrotation Xrotation Zrotation
       JOINT LeftElbow
       {
        OFFSET 0.000000 -29.696600 0.000000
        CHANNELS 3 Yrotation Xrotation Zrotation
        JOINT LeftWrist
        {
         OFFSET 0.000000 -24.004700 0.000000
         CHANNELS 3 Yrotation Xrotation Zrotation
         End Site
         {
          OFFSET 0.000000 -17.728500 0.000000
         }
        }
       }
      }
     }
    }
   }
  }
 }
 JOINT RightHip
 {
  OFFSET -7.771700 -0.012900 -0.001300
  CHANNELS 3 Yrotation Xrotation Zrotation
  JOINT RightKnee
  {
   OFFSET 0.000000 -40.869800 0.001200
   CHANNELS 3 Yrotation Xrotation Zrotation
   JOINT RightAnkle
   {
    OFFSET 0.000000 -39.717900 0.002100
    CHANNELS 3 Yrotation Xrotation Zrotation
    JOINT RightToe
    {
     OFFSET 0.000000 -4.965400 11.033500
     CHANNELS 3 Yrotation Xrotation Zrotation
     End Site
     {
      OFFSET 0.000000 -1.423100 5.872300
     }
    }
   }
  }
 }
 JOINT LeftHip
 {
  OFFSET 7.771700 -0.012900 -0.001300
  CHANNELS 3 Yrotation Xrotation Zrotation
  JOINT LeftKnee
  {
   OFFSET 0.000000 -40.869800 0.001200
   CHANNELS 3 Yrotation Xrotation Zrotation
   JOINT LeftAnkle
   {
    OFFSET 0.000000 -39.717900 0.002100
    CHANNELS 3 Yrotation Xrotation Zrotation
    JOINT LeftToe
    {
     OFFSET 0.000000 -4.965400 11.033500
     CHANNELS 3 Yrotation Xrotation Zrotation
     End Site
     {
      OFFSET 0.000000 -1.423100 5.872300
     }
    }
   }
  }
 }
}
MOTION
Frames: 15
Frame Time: 0.008333
-90.136857 57.411436 1.658383 162.923547 -9.645068 0.517766 3.718734 9.758931 0.636168 0.220367 0.621245 -0.019111 0.390687 1.040263 0.004366 3.227372 9.165033 -0.073886 1.458274 16.599077 -0.887180 3.011958 -4.931662 -2.152367 4.228053 4.421143 -2.119766 4.750479 -11.245052 -18.556697 -68.941988 -60.393507 100.540505 -9.204877 -1.139410 -21.285969 -12.043576 4.442212 -0.709353 8.212768 -22.112961 8.462468 81.600396 -62.691619 -117.078323 0.881794 4.425176 -6.036644 -13.272968 -62.868452 5.140886 -29.939092 73.555983 -30.152774 -2.380814 -7.019043 -1.941030 -0.182976 0.881663 -0.137271 1.659431 -65.112898 13.371581 49.404155 64.789528 41.710287 -18.630717 -7.876632 2.285946 -0.409656 -0.802760 -0.109712
-90.148939 57.398433 1.689959 162.926256 -9.741334 0.506165 3.698885 9.865139 0.617512 0.232417 0.617568 -0.003131 0.389814 1.059668 -0.013522 3.211998 9.279078 -0.102233 1.513752 16.618536 -0.848436 3.100725 -4.895098 -2.099291 4.421469 4.373913 -2.154442 4.608816 -12.030380 -18.737976 -71.753742 -61.923039 103.165289 -8.461935 -1.042864 -20.233243 -12.010538 4.246711 -0.803292 8.450822 -23.629868 8.352435 82.135969 -62.741128 -117.969151 0.975226 4.316671 -6.203443 -13.306518 -62.780822 5.161280 -29.888058 73.524626 -30.107043 -2.386961 -6.994699 -1.952684 -0.169098 0.889020 -0.125141 1.794351 -65.045335 13.303166 49.325087 64.780750 41.625597 -18.689673 -7.836231 2.319483 -0.372395 -0.803254 -0.119190
-90.160188 57.388956 1.717216 162.905449 -9.833688 0.501683 3.697089 9.986262 0.593262 0.230081 0.637375 -0.014702 0.381772 1.128398 -0.048435 3.232423 9.324321 -0.097678 1.559604 16.632375 -0.811921 3.172538 -4.869211 -2.047083 4.566918 4.290283 -2.193877 4.411916 -12.844862 -18.823226 -75.083963 -63.526653 106.255239 -7.719614 -0.979235 -19.188988 -12.000813 4.034346 -0.865390 8.802472 -25.033711 8.173958 82.660150 -62.739186 -118.858284 1.093637 4.208914 -6.249813 -13.312701 -62.697890 5.177255 -29.824677 73.501898 -30.050363 -2.399357 -6.971548 -1.962695 -0.157560 0.893605 -0.119141 1.879473 -64.967490 13.280603 49.316643 64.766492 41.590578 -18.703608 -7.830599 2.343974 -0.399574 -0.785333 -0.118815
-90.170331 57.384156 1.737003 162.867537 -9.936575 0.509708 3.704891 10.134472 0.557900 0.228024 0.663305 -0.026964 0.392324 1.142001 -0.044815 3.235986 9.424905 -0.135967 1.596010 16.641547 -0.778495 3.228053 -4.852183 -1.997478 4.665472 4.179022 -2.232477 4.181093 -13.670847 -18.835839 -78.882273 -65.044307 109.797306 -7.032056 -0.962473 -18.199356 -12.027113 3.814964 -0.888693 9.237260 -26.287992 7.946712 83.239091 -62.676442 -119.780371 1.242191 4.095426 -6.204697 -13.265147 -62.604148 5.155476 -29.774384 73.480138 -30.000549 -2.419777 -6.947566 -1.977877 -0.138129 0.892291 -0.107331 2.003695 -64.876157 13.241280 49.308624 64.764049 41.555855 -18.730323 -7.823679 2.348278 -0.416455 -0.779773 -0.096277
-90.178948 57.383788 1.752503 162.820613 -10.029337 0.522070 3.711874 10.282757 0.517395 0.242897 0.659756 -0.021296 0.404256 1.136577 -0.038001 3.223011 9.575797 -0.198596 1.626478 16.648555 -0.750421 3.274577 -4.839160 -1.955760 4.719348 4.055765 -2.267304 3.935895 -14.503803 -18.801931 -83.026408 -66.343044 113.694581 -6.462295 -0.987735 -17.318519 -12.093896 3.598695 -0.871857 9.711097 -27.358052 7.706515 83.954728 -62.533748 -120.791805 1.415015 3.976019 -6.095494 -13.182864 -62.516866 5.109547 -29.720427 73.460902 -29.936709 -2.438501 -6.928025 -1.993234 -0.122619 0.891035 -0.095535 2.144117 -64.793892 13.198887 49.301708 64.770662 41.518708 -18.758461 -7.805008 2.380805 -0.435943 -0.793493 -0.099037
-90.182162 57.386968 1.769243 162.735833 -10.085248 0.511727 3.751675 10.396406 0.504812 0.282473 0.619264 0.001663 0.365628 1.241725 -0.081929 3.239200 9.649223 -0.234840 1.653829 16.655350 -0.731266 3.318428 -4.826353 -1.929507 4.738287 3.932823 -2.299203 3.680393 -15.340401 -18.740980 -87.301443 -67.342792 117.771918 -6.068204 -1.041851 -16.587236 -12.200573 3.394905 -0.818664 10.182631 -28.225961 7.491270 84.865809 -62.293964 -121.928298 1.611296 3.850782 -5.956368 -13.175719 -62.463244 5.175978 -29.664132 73.436506 -29.864458 -2.471074 -6.861237 -2.031078 -0.076070 0.851239 -0.085585 2.262889 -64.748387 13.223303 49.248561 64.792813 41.464285 -18.789190 -7.794252 2.375283 -0.414292 -0.805901 -0.084082
-90.193834 57.394363 1.777208 162.691579 -10.138681 0.560540 3.732210 10.509681 0.426503 0.292729 0.637157 -0.005735 0.353187 1.287664 -0.095591 3.251694 9.718795 -0.270844 1.677857 16.663553 -0.722561 3.359688 -4.810734 -1.921481 4.737979 3.817150 -2.328646 3.405686 -16.172184 -18.664856 -91.410029 -67.996506 121.779088 -5.863804 -1.115593 -16.020778 -12.336313 3.208443 -0.732952 10.608886 -28.887822 7.331149 85.994263 -61.949876 -123.185967 1.833755 3.719202 -5.820084 -13.156050 -62.437972 5.164240 -29.620741 73.445242 -29.856908 -2.491072 -6.796361 -2.051746 -0.047453 0.796456 -0.079126 2.435742 -64.695776 13.117468 49.331025 64.779888 41.482454 -18.766404 -7.751751 2.429230 -0.462981 -0.853675 -0.102704
-90.202230 57.405148 1.779937 162.663362 -10.191886 0.597527 3.695690 10.615473 0.357629 0.254364 0.705565 -0.033954 0.397760 1.255597 -0.077799 3.245234 9.808274 -0.312515 1.697775 16.674565 -0.723464 3.396621 -4.789678 -1.929691 4.726363 3.714297 -2.352647 3.115630 -16.989658 -18.580846 -95.060656 -68.293921 125.439614 -5.825569 -1.205894 -15.623715 -12.486669 3.048240 -0.614859 10.957871 -29.363311 7.245669 87.307837 -61.494529 -124.526326 2.081601 3.579436 -5.697847 -13.078442 -62.396342 5.093360 -29.594693 73.444712 -29.834526 -2.500521 -6.762455 -2.062476 -0.039047 0.763182 -0.066564 2.571528 -64.643379 13.036723 49.415862 64.769352 41.506116 -18.759778 -7.703004 2.495212 -0.491086 -0.909474 -0.134863
-90.204779 57.418260 1.778792 162.628354 -10.244537 0.607456 3.672569 10.709662 0.317758 0.241428 0.733909 -0.045092 0.414052 1.260137 -0.075514 3.230720 9.889550 -0.349674 1.715425 16.689071 -0.732793 3.432174 -4.761875 -1.952525 4.709622 3.630904 -2.366989 2.829300 -17.781932 -18.497916 -98.092892 -68.269750 128.578560 -5.925845 -1.314080 -15.391925 -12.639554 2.930687 -0.465234 11.223705 -29.693355 7.236670 88.736506 -60.925242 -125.896571 2.358905 3.425342 -5.588920 -13.049182 -62.347401 5.083604 -29.565214 73.446975 -29.808743 -2.504426 -6.712894 -2.071895 -0.033986 0.712374 -0.057366 2.695426 -64.594901 13.002307 49.427621 64.784383 41.488913 -18.786258 -7.664000 2.532134 -0.482376 -0.958270 -0.145636
-90.204506 57.432511 1.773993 162.580347 -10.293703 0.606412 3.668678 10.789446 0.293644 0.241653 0.744580 -0.047797 0.414214 1.277962 -0.080108 3.207404 9.960871 -0.381758 1.732509 16.707561 -0.749370 3.469035 -4.726364 -1.988542 4.696894 3.572802 -2.372165 2.563549 -18.535314 -18.422936 -100.492339 -67.979499 131.158984 -6.138364 -1.443812 -15.312120 -12.784633 2.860061 -0.294691 11.413290 -29.913202 7.301212 90.218257 -60.249267 -127.258883 2.677087 3.260589 -5.482077 -13.070892 -62.301813 5.129933 -29.534673 73.453942 -29.788416 -2.505331 -6.644002 -2.085958 -0.026650 0.640190 -0.052257 2.843655 -64.546977 12.982914 49.382661 64.819762 41.429165 -18.838919 -7.644166 2.545555 -0.450601 -0.991801 -0.128435
-90.210300 57.446780 1.764100 162.553394 -10.336009 0.640194 3.664388 10.846643 0.249297 0.218360 0.762531 -0.063042 0.412777 1.292647 -0.083584 3.176673 10.021058 -0.406655 1.788051 16.669387 -0.743910 3.470248 -4.622187 -2.047153 4.689144 3.543889 -2.372494 2.327213 -19.240084 -18.357741 -102.333689 -67.478817 133.231510 -6.431353 -1.599747 -15.363657 -12.915870 2.823896 -0.120323 11.545446 -30.047342 7.438361 91.694708 -59.481067 -128.586090 3.042376 3.090602 -5.350899 -13.102330 -62.273677 5.134313 -29.458510 73.480352 -29.744179 -2.503231 -6.589725 -2.098220 -0.029472 0.573031 -0.051909 2.967367 -64.500265 12.906278 49.428651 64.831938 41.443057 -18.830997 -7.614780 2.569682 -0.475210 -1.041029 -0.132074
-90.210029 57.460049 1.753093 162.532755 -10.373885 0.634427 3.662604 10.894650 0.244296 0.197873 0.775233 -0.078749 0.410158 1.304117 -0.085849 3.141819 10.069531 -0.423216 1.782440 16.726430 -0.783441 3.522447 -4.609523 -2.090722 4.682657 3.542627 -2.370589 2.120102 -19.889070 -18.301080 -103.753630 -66.827347 134.912479 -6.769698 -1.786771 -15.515336 -13.033571 2.814008 0.046947 11.655263 -30.124689 7.634150 93.106941 -58.643145 -129.850856 3.447742 2.910795 -5.169802 -13.140505 -62.232469 5.166942 -29.443868 73.489746 -29.734018 -2.489620 -6.546516 -2.103239 -0.025480 0.518001 -0.044196 3.039184 -64.457293 12.904113 49.409764 64.858462 41.406909 -18.847032 -7.612707 2.588601 -0.481317 -1.060142 -0.118313
-90.209857 57.471438 1.740809 162.529002 -10.400383 0.622757 3.625711 10.936022 0.222759 0.198995 0.778526 -0.077440 0.406528 1.312473 -0.087110 3.104109 10.106490 -0.432989 1.775216 16.778464 -0.822374 3.571310 -4.590532 -2.136152 4.678863 3.560544 -2.371184 1.941007 -20.468168 -18.252138 -104.942185 -66.086054 136.367932 -7.121904 -2.007703 -15.745660 -13.134453 2.832896 0.197920 11.767200 -30.178314 7.867613 94.424160 -57.765741 -131.039700 3.883558 2.713390 -4.936528 -13.196663 -62.200150 5.196861 -29.470948 73.500575 -29.738407 -2.487479 -6.526385 -2.145895 0.007690 0.477596 -0.029153 3.082786 -64.423895 12.905930 49.380626 64.881844 41.362592 -18.855527 -7.613800 2.602860 -0.507422 -1.073419 -0.120888
-90.213689 57.480088 1.728936 162.507733 -10.400667 0.631548 3.568232 10.963405 0.157140 0.234574 0.768301 -0.052132 0.425339 1.308249 -0.079397 3.038811 10.141965 -0.444373 1.785525 16.803587 -0.848256 3.598585 -4.542520 -2.186825 4.681475 3.592278 -2.380993 1.789902 -20.963659 -18.217319 -106.094957 -65.303711 137.762724 -7.463395 -2.260463 -16.037786 -13.208018 2.880947 0.321906 11.898757 -30.230322 8.113524 95.640584 -56.885421 -132.163754 4.330452 2.491147 -4.666899 -13.198402 -62.197281 5.198746 -29.427782 73.509096 -29.701700 -2.479730 -6.505291 -2.138578 0.005275 0.451701 -0.037333 3.186764 -64.410892 12.857045 49.339500 64.903832 41.310788 -18.876146 -7.630361 2.623400 -0.459548 -1.069353 -0.121771
-90.213528 57.487197 1.711941 162.493455 -10.423295 0.622387 3.565090 10.991902 0.158322 0.210876 0.776897 -0.057830 0.445229 1.303984 -0.075736 2.970657 10.163899 -0.446061 1.793288 16.829482 -0.872872 3.620550 -4.493322 -2.234126 4.690350 3.635230 -2.402885 1.658696 -21.370512 -18.203450 -107.356957 -64.513683 139.219754 -7.776740 -2.533594 -16.367284 -13.246357 2.950697 0.414482 12.076655 -30.294143 8.343451 96.748874 -56.038738 -133.236725 4.764565 2.247833 -4.380136 -13.206135 -62.169122 5.211459 -29.457115 73.520631 -29.717503 -2.494418 -6.499135 -2.149933 0.033706 0.428634 -0.025961 3.257862 -64.362000 12.843965 49.264816 64.921831 41.230722 -18.916695 -7.699028 2.634022 -0.447073 -1.014139 -0.119709
